<svg width="256" height="255" viewBox="0 0 256 255" fill="none" xmlns="http://www.w3.org/2000/svg">
<path fill-rule="evenodd" clip-rule="evenodd" d="M187.523 141H255.706C248.926 205.07 194.43 255 128.206 255C61.983 255 7.48648 205.07 0.706238 141H68.8895C75.0577 167.915 99.2733 188 128.206 188C157.139 188 181.355 167.915 187.523 141ZM187.523 114H255.706C248.926 49.9301 194.43 0 128.206 0C61.983 0 7.48648 49.9301 0.706238 114H68.8895C75.0577 87.0854 99.2733 67 128.206 67C157.139 67 181.355 87.0854 187.523 114Z" fill="white"/>
<ellipse cx="127.703" cy="127" rx="37.2061" ry="37" fill="white"/>
</svg>
